<svg width="275" height="66" viewBox="0 0 275 66" fill="none" xmlns="http://www.w3.org/2000/svg">
<g clip-path="url(#clip0_306_81)">
<path fill-rule="evenodd" clip-rule="evenodd" d="M31.3297 7.05139C32.6257 9.02575 32.6821 12.2411 32.6821 16.3591C31.1607 32.9437 14.9884 42.8719 24.3987 63.0668C14.0305 59.0617 3.21144 47.3847 6.1416 30.9129C8.22652 18.4463 18.4257 8.46165 31.3297 7.05139Z" fill="#009EE3" stroke="#009EE3" stroke-width="0.5669" stroke-miterlimit="22.9256"/>
<path fill-rule="evenodd" clip-rule="evenodd" d="M33.0204 6.93856C32.964 9.70266 33.0204 11.395 34.1474 12.9745C59.2791 40.0514 31.668 47.2155 31.5553 64.8155C44.1212 66.1693 61.7585 58.0463 63.5053 37.2873C64.2378 14.8924 44.1212 5.81036 33.0204 6.93856Z" fill="#EA506C" stroke="#EA506C" stroke-width="0.5669" stroke-miterlimit="22.9256"/>
<path fill-rule="evenodd" clip-rule="evenodd" d="M35.5558 20.1947C36.9081 23.6921 41.3597 25.3844 41.4161 35.5383C40.2327 46.1434 27.7796 50.9383 28.2304 63.8562C18.7637 45.805 33.5272 32.5485 35.5558 20.1947Z" fill="#00963F" stroke="#00963F" stroke-width="0.5669" stroke-miterlimit="22.9256"/>
<path fill-rule="evenodd" clip-rule="evenodd" d="M31.33 7.05139C32.626 9.02575 32.6824 12.2411 32.6824 16.3591C31.2173 33.2258 14.9887 42.5899 24.399 63.0668C14.8197 53.9847 12.5657 42.0258 14.7633 33.2822C18.9895 18.2206 27.3855 22.2258 31.33 7.05139Z" fill="#A1D9F8" stroke="#A1D9F8" stroke-width="0.5669" stroke-miterlimit="22.9256"/>
<path fill-rule="evenodd" clip-rule="evenodd" d="M33.0204 6.93835C32.964 9.70246 33.0204 11.6204 34.3728 13.2563C59.5045 40.3332 31.7243 47.2153 31.5553 64.8717C44.2339 60.8101 56.0109 56.9178 55.9545 37.7384C54.8275 19.7999 41.6982 19.2922 33.0204 6.93835Z" fill="#E3000F" stroke="#E3000F" stroke-width="0.5669" stroke-miterlimit="22.9256"/>
<path fill-rule="evenodd" clip-rule="evenodd" d="M35.4442 19.8567C36.7402 23.3541 41.3609 25.3849 41.4172 35.5387C41.3609 35.9336 41.3045 36.3285 41.2482 36.7798C39.276 46.5387 27.8371 51.4464 28.2879 63.8567C24.5688 48.0618 42.995 35.9336 35.4442 19.8567Z" fill="#AFCA05" stroke="#AFCA05" stroke-width="0.5669" stroke-miterlimit="22.9256"/>
<path fill-rule="evenodd" clip-rule="evenodd" d="M12.6796 58.7231L10.482 60.8103L10.0875 60.359L10.9891 59.5692L10.1439 58.6667L9.24227 59.4564L8.84783 59.0051L11.0454 56.9179L11.4399 57.3692L10.482 58.2718L11.3272 59.1744L12.2851 58.2718L12.6796 58.7231ZM8.90418 54.3795L7.27005 57.2L7.66449 57.7077L10.7637 56.7487L10.3693 56.241L9.69307 56.4667L8.96053 55.5077L9.35497 54.8872L8.90418 54.3795ZM8.67878 56.0154L8.05894 57.0308L9.18592 56.6359L8.67878 56.0154ZM6.08672 55.6769L5.74862 55.1692L7.88989 53.8154L7.27005 52.8L5.12878 54.1538L4.79069 53.6461L6.93195 52.2923L6.81926 52.0667L7.83354 51.4461L8.11529 51.8974L7.5518 52.2359L8.67878 54.041L6.08672 55.6769ZM4.33989 52.8564L7.04465 51.5026L6.76291 50.9385L4.45259 50.7692L6.19942 49.8667L5.91767 49.359L3.21291 50.7128L3.49465 51.2769L5.86132 51.4461L4.05815 52.3487L4.33989 52.8564ZM4.28354 49.4154C4.0018 49.5282 3.72005 49.5846 3.49465 49.5846C3.32561 49.5846 3.15656 49.5282 2.98751 49.4718C2.81846 49.4154 2.70577 49.3026 2.59307 49.1897C2.42402 49.0205 2.31132 48.8513 2.25497 48.6256C2.08592 48.2308 2.08592 47.8359 2.25497 47.4974C2.42402 47.159 2.70577 46.8769 3.21291 46.7077C3.6637 46.5385 4.05815 46.5385 4.45259 46.6513C4.79069 46.8205 5.07243 47.1026 5.24148 47.4974C5.41053 47.8923 5.41053 48.2872 5.24148 48.6256C5.01608 48.9641 4.73434 49.2462 4.28354 49.4154ZM4.05815 48.7949C4.39624 48.682 4.62164 48.5128 4.67799 48.2872C4.79069 48.0615 4.79069 47.8359 4.73434 47.6103C4.62164 47.3846 4.50894 47.2154 4.28354 47.159C4.05815 47.1026 3.7764 47.1026 3.4383 47.2154C3.10021 47.3282 2.87481 47.4974 2.81846 47.7231C2.70577 47.9487 2.70577 48.1744 2.81846 48.4C2.93116 48.6256 3.04386 48.7949 3.26926 48.8513C3.4383 48.9641 3.72005 48.9641 4.05815 48.7949ZM4.45259 45.6923L4.28354 45.0718L2.98751 45.4103L2.64942 44.2256L3.94545 43.8872L3.7764 43.2667L0.846242 44.0564L1.01529 44.6769L2.14227 44.3949L2.48037 45.5795L1.35338 45.8615L1.52243 46.482L4.45259 45.6923ZM3.15656 39.9949L3.26926 40.6718L2.64942 41.0667L2.87481 42.2513L3.60735 42.3641L3.72005 42.9846L0.508146 42.3641L0.395449 41.7436L3.15656 39.9949ZM2.19862 41.2923L1.12799 41.9128L2.31132 42.1385L2.19862 41.2923ZM0.113703 39.6564L-0.0553455 37.5128L2.98751 37.2872L3.04386 37.9077L0.508146 38.0769L0.564496 38.9795L1.86053 38.8667C2.25497 38.8667 2.48037 38.8103 2.64942 38.8667C2.81846 38.8667 2.93116 38.9231 2.98751 39.0359C3.10021 39.1487 3.10021 39.2615 3.15656 39.4872C3.15656 39.5436 3.15656 39.7128 3.15656 39.882L2.70576 39.9385V39.8256C2.70576 39.7128 2.64942 39.6 2.64942 39.5436C2.59307 39.4872 2.48037 39.4872 2.36767 39.4872H1.86053L0.113703 39.6564ZM-0.111694 36.5538V35.9333L1.12799 35.9897L1.18434 35.1436C1.18434 34.7487 1.29704 34.4667 1.46608 34.2974C1.63513 34.1282 1.86053 34.0718 2.14227 34.0718C2.36767 34.0718 2.53672 34.1282 2.64942 34.241C2.81846 34.3538 2.87481 34.4667 2.93116 34.6359C2.98751 34.7487 2.98751 34.9744 2.98751 35.2L2.87481 36.6667L-0.111694 36.5538ZM2.42402 35.9897V35.3692C2.42402 35.2 2.42402 35.0308 2.42402 34.9744C2.42402 34.9179 2.36767 34.8051 2.31132 34.7487C2.25497 34.6923 2.14227 34.6359 2.08592 34.6359C1.97323 34.6359 1.86053 34.6923 1.74783 34.7487C1.69148 34.8615 1.63513 35.0308 1.63513 35.2564V35.8769L2.42402 35.9897ZM2.98751 33.6205L0.00100394 33.1692L0.113703 32.5487L1.29703 32.7179L1.46608 31.5333L0.28275 31.3641L0.395449 30.7436L3.38196 31.1949L3.26926 31.8154L1.97323 31.6462L1.80418 32.8308L3.10021 33L2.98751 33.6205ZM3.94545 27.8667L0.733543 28.3744L0.564496 28.9949L3.26926 30.8564L3.4383 30.2359L2.81846 29.841L3.10021 28.6564L3.83275 28.5436L3.94545 27.8667ZM2.53672 28.7128L2.36767 29.5026L1.35338 28.8256L2.53672 28.7128ZM4.56529 25.7795L3.32561 25.441L3.26926 25.5538C3.21291 25.7231 3.21291 25.8923 3.21291 25.9487C3.26926 26.0615 3.38196 26.2308 3.60735 26.4564L4.11449 27.0769L3.94545 27.8103L3.49465 27.3026C3.32561 27.0769 3.15656 26.9641 3.10021 26.8513C3.04386 26.7385 2.98751 26.6256 2.93116 26.4564C2.81846 26.7385 2.64942 26.9077 2.48037 26.9641C2.31132 27.0205 2.08592 27.0769 1.91688 27.0205C1.74783 26.9641 1.57878 26.8513 1.46608 26.7385C1.35338 26.6256 1.29703 26.4564 1.29703 26.2872C1.29703 26.1179 1.35338 25.8923 1.40973 25.6103L1.74783 24.3692L4.67799 25.2154L4.56529 25.7795ZM2.14227 25.1026L2.02958 25.5538C1.97323 25.7795 1.91688 25.9487 1.91688 26.0051C1.91688 26.0615 1.91688 26.1744 1.97323 26.2308C2.02957 26.2872 2.08592 26.3436 2.19862 26.4C2.31132 26.4564 2.36767 26.4 2.48037 26.4C2.53672 26.3436 2.59307 26.2872 2.64942 26.2308C2.70577 26.1744 2.76211 26.0051 2.81846 25.7795L2.93116 25.3282L2.14227 25.1026ZM6.36846 20.7026L6.70656 20.8718L6.42481 21.3795L6.08672 21.2103C5.86132 21.6051 5.57957 21.8872 5.29783 21.9436C5.01608 22 4.73434 22 4.39624 21.8308C4.05815 21.6615 3.8891 21.4359 3.7764 21.1538C3.6637 20.8718 3.72005 20.5333 3.94545 20.082L3.6637 19.9128L3.94545 19.4051L4.22719 19.5744C4.45259 19.1795 4.73434 18.8974 5.01608 18.841C5.29783 18.7846 5.57957 18.7846 5.91767 18.9538C6.19942 19.1231 6.42481 19.3487 6.53751 19.6308C6.59386 19.9128 6.59386 20.2513 6.36846 20.7026ZM5.91767 20.4769C5.97402 20.3077 6.03037 20.1949 6.03037 20.082C6.03037 19.9692 6.03037 19.8564 5.97402 19.7436C5.91767 19.6308 5.80497 19.5744 5.63592 19.5179C5.24148 19.2923 4.95973 19.4051 4.73434 19.8564L5.91767 20.4769ZM5.63592 20.9846L4.45259 20.3641C4.33989 20.5897 4.28354 20.759 4.33989 20.9282C4.39624 21.0974 4.50894 21.2103 4.73434 21.3231C5.07243 21.5487 5.41053 21.4359 5.63592 20.9846ZM7.5518 19.2923L8.79148 17.3744L8.34068 17.0923L7.4391 18.5026L6.76291 18.0513L7.60815 16.7538L7.15735 16.4718L6.31211 17.7692L5.74862 17.3744L6.65021 16.0205L6.19942 15.7385L4.95973 17.6564L7.5518 19.2923ZM6.93195 14.8359L8.22799 13.2L10.2002 14.7795L10.3693 14.5538L11.2708 15.2872L10.9327 15.682L10.4256 15.2872L9.24227 16.7538L9.74941 17.1487L9.41132 17.5436L8.50973 16.8103L8.67878 16.5846C8.56608 16.3026 8.39703 16.0769 8.11529 15.7949C7.88989 15.5692 7.5518 15.2308 7.15735 14.9487L6.93195 14.8359ZM7.72084 14.7231L8.28434 14.0462L9.86211 15.3436L9.12957 16.2462C8.90418 15.7949 8.39703 15.2872 7.72084 14.7231ZM11.1018 14.5538L12.6796 12.9179L12.2851 12.5795L11.1018 13.8205L10.482 13.2564L11.5526 12.1846L11.1581 11.8462L10.0875 12.9179L9.58037 12.4667L10.7074 11.282L10.3129 10.9436L8.73513 12.5795L11.1018 14.5538ZM13.0177 12.5795L11.0454 10.2667L11.8343 9.58974C12.1161 9.3641 12.3415 9.19487 12.3978 9.13846C12.5669 9.08205 12.7359 9.02564 12.905 9.08205C13.074 9.13846 13.2431 9.25128 13.4121 9.42051C13.5248 9.58974 13.5812 9.70256 13.6375 9.87179C13.6939 10.041 13.6939 10.1538 13.6375 10.2667C13.5812 10.3795 13.5812 10.4923 13.4685 10.6051C13.3558 10.7179 13.2431 10.8872 13.0177 11.0564L12.7923 11.282L13.5248 12.1846L13.0177 12.5795ZM11.8907 10.2103L12.1161 10.041C12.2851 9.87179 12.3978 9.81538 12.4542 9.75897C12.5669 9.70256 12.6232 9.70256 12.7359 9.70256C12.8486 9.70256 12.905 9.75897 12.9613 9.87179C13.0177 9.9282 13.074 10.041 13.074 10.0974C13.074 10.1538 13.074 10.2667 13.0177 10.3231C12.9613 10.3795 12.8486 10.4923 12.6796 10.6615L12.3978 10.8872L11.8907 10.2103ZM17.1312 9.3641L16.5677 9.75897L15.9478 9.3641L14.9335 10.041L15.1026 10.7744L14.6518 11.1128L13.8629 7.95384L14.37 7.55897L17.1312 9.3641ZM15.497 9.02564L14.4827 8.34871L14.8208 9.53333L15.497 9.02564ZM15.8915 6.48718L17.3566 9.13846L19.2724 8.06666L19.6105 8.63077L20.0613 8.40512L19.4978 7.38974L19.2724 7.50256L18.0327 5.30256L17.4693 5.58461L18.7089 7.78461L17.6947 8.34871L16.455 6.14871L15.8915 6.48718ZM18.8216 4.79487L19.3288 4.56923L20.174 6.43077L20.4558 4.06153L21.0193 3.83589L22.2589 6.6L21.7518 6.82564L20.9629 5.02051L20.6248 7.33333L20.0613 7.55897L18.8216 4.79487ZM24.5693 5.75384L25.1327 5.58461L24.1748 2.70769L22.9351 3.10256C22.6534 3.21538 22.428 3.27179 22.3153 3.38461C22.2026 3.49743 22.0899 3.61025 22.0335 3.77948C21.9772 3.94871 21.9772 4.11795 22.0335 4.28718C22.0899 4.51282 22.2026 4.62564 22.3716 4.73846C22.5407 4.85128 22.7661 4.85128 23.0478 4.85128C22.9351 4.9641 22.8788 5.07692 22.8224 5.18974C22.7661 5.30256 22.7097 5.5282 22.6534 5.75384L22.5407 6.37436L23.2169 6.14871L23.4423 5.35897C23.555 5.02051 23.6113 4.79487 23.6677 4.73846C23.724 4.68205 23.8367 4.56923 24.0058 4.51282H24.1748L24.5693 5.75384ZM23.7804 3.3282L24.0058 4.06153L23.555 4.17436C23.3296 4.23077 23.1605 4.28718 23.0478 4.28718C22.9915 4.28718 22.8788 4.28718 22.8224 4.23077C22.7661 4.17436 22.7097 4.11795 22.6534 4.00512C22.597 3.8923 22.597 3.83589 22.6534 3.72307C22.7097 3.66666 22.7097 3.61025 22.8224 3.55384C22.8788 3.49743 23.0478 3.44102 23.2732 3.38461L23.7804 3.3282ZM29.7534 3.3282L30.3732 3.38461C30.3169 3.72307 30.2605 4.00512 30.0351 4.17436C29.8661 4.4 29.5843 4.51282 29.3026 4.56923C28.9081 4.62564 28.57 4.56923 28.232 4.34359C27.9502 4.11794 27.7248 3.77948 27.6685 3.27179C27.5558 2.7641 27.6685 2.36923 27.8375 2.03077C28.0629 1.6923 28.3446 1.52307 28.7954 1.46666C29.1335 1.41025 29.4716 1.46666 29.7534 1.63589C29.9224 1.74871 30.0351 1.91795 30.1478 2.14359L29.5843 2.36923C29.528 2.2 29.4153 2.08718 29.3026 2.03077C29.1899 1.97436 29.0208 1.91795 28.8518 1.97436C28.6264 2.03077 28.4573 2.14359 28.3447 2.31282C28.232 2.48205 28.2319 2.7641 28.2883 3.10256C28.3446 3.49743 28.4573 3.72307 28.6264 3.8923C28.7954 4.00512 28.9645 4.06153 29.1899 4.06153C29.3589 4.00512 29.4716 3.94871 29.5843 3.83589C29.697 3.72307 29.7534 3.55384 29.7534 3.3282ZM30.824 1.18461L33.247 1.01538L33.4724 4.06153L32.8526 4.11795L32.6835 1.57948L31.5002 1.6923L31.6693 4.23077L31.0494 4.28718L30.824 1.18461ZM34.0359 4.06153L34.0923 1.01538L36.3462 1.07179V1.57948L34.7121 1.52307V2.2H36.2335V2.70769H34.7121V3.55384L36.4026 3.61025V4.11795L34.0359 4.06153ZM37.3042 1.07179L37.924 1.1282L37.6423 3.66666L38.8256 3.83589L39.1073 1.29743L39.7272 1.35384L39.4454 3.8923L39.6708 3.94871L39.5018 5.07692L38.9946 5.02051L39.051 4.34359L36.9097 4.06153L37.3042 1.07179ZM40.6288 1.46666L41.1923 1.57948L40.7978 3.55384L42.4319 1.80512L43.0518 1.91795L42.4319 4.90769L41.8685 4.79487L42.2629 2.87692L40.6288 4.56923L40.0089 4.45641L40.6288 1.46666ZM45.5875 5.97948L45.3621 2.70769L44.7423 2.48205L42.6573 5.02051L43.2772 5.24615L43.728 4.68205L44.855 5.07692L44.9113 5.81025L45.5875 5.97948ZM44.855 4.45641L44.0661 4.17436L44.7986 3.21538L44.855 4.45641ZM47.3907 3.38461L49.3065 4.23077L48.0669 6.99487L47.5034 6.76923L48.5177 4.45641L47.6724 4.06153L47.1653 5.24615C46.9962 5.58461 46.8835 5.81025 46.8272 5.92307C46.7708 6.03589 46.6581 6.14871 46.5454 6.14871C46.4327 6.20512 46.2637 6.14871 46.0946 6.0923C46.0383 6.03589 45.9256 5.97948 45.7565 5.92307L45.9256 5.47179L46.0383 5.5282C46.151 5.58461 46.2637 5.58461 46.32 5.58461C46.3764 5.58461 46.4327 5.5282 46.4891 5.35897L46.7145 4.90769L47.3907 3.38461ZM50.0391 4.56923L48.6867 7.27692L49.2502 7.55897L51.2224 6.37436L50.3208 8.12307L50.828 8.40512L52.1804 5.69743L51.6169 5.41538L49.5883 6.65641L50.4899 4.85128L50.0391 4.56923ZM53.5891 8.85641L53.9835 9.30769C53.7581 9.53333 53.4764 9.64615 53.1946 9.70256C52.9129 9.70256 52.6311 9.64615 52.4058 9.47692C52.0677 9.25128 51.8423 8.96923 51.7859 8.57436C51.7296 8.17948 51.7859 7.84102 52.0677 7.38974C52.3494 6.93846 52.6311 6.71282 53.0256 6.6C53.42 6.48718 53.7581 6.54359 54.0962 6.76923C54.4343 6.93846 54.6034 7.22051 54.7161 7.50256C54.7724 7.67179 54.7724 7.89743 54.6597 8.12307L54.0399 7.89743C54.0962 7.7282 54.0962 7.61538 54.0399 7.44615C53.9835 7.33333 53.8708 7.22051 53.7581 7.10769C53.5891 6.99487 53.3637 6.93846 53.1383 6.99487C52.9129 7.05128 52.7438 7.22051 52.5184 7.55897C52.2931 7.89743 52.2367 8.17948 52.2367 8.34871C52.2931 8.57436 52.3494 8.74359 52.5748 8.85641C52.6875 8.96923 52.8565 8.96923 53.0256 8.96923C53.251 9.13846 53.42 9.02564 53.5891 8.85641ZM54.3216 10.8872L54.8288 11.282L56.4065 9.30769L57.1391 9.87179L57.4772 9.47692L55.5613 8.01025L55.2232 8.40512L55.9558 8.96923L54.3216 10.8872ZM56.6319 10.8308C56.8573 10.6051 57.0264 10.4359 57.2518 10.3795C57.4208 10.3231 57.5899 10.2667 57.7589 10.2667C57.928 10.2667 58.097 10.2667 58.2097 10.3231C58.3788 10.3795 58.6042 10.4923 58.7732 10.6615C59.1113 10.9436 59.2804 11.3385 59.2804 11.6769C59.2804 12.0718 59.1113 12.4103 58.7732 12.8051C58.4351 13.1436 58.097 13.3692 57.7026 13.3692C57.3081 13.3692 56.97 13.2564 56.6319 12.9179C56.2938 12.6359 56.1248 12.241 56.1248 11.9026C56.1248 11.5641 56.2938 11.2256 56.6319 10.8308ZM57.0827 11.282C57.3081 11 57.5335 10.8872 57.8153 10.8872C58.0407 10.8872 58.2661 10.9436 58.4351 11.1128C58.6042 11.282 58.7169 11.5077 58.7169 11.7333C58.7169 11.959 58.6042 12.1846 58.3788 12.4667C58.1534 12.7487 57.928 12.8615 57.6462 12.8615C57.4208 12.8615 57.1954 12.8051 57.0264 12.6359C56.8573 12.4667 56.7446 12.241 56.7446 12.0154C56.7446 11.7897 56.8573 11.5077 57.0827 11.282ZM60.351 12.3538L58.0407 14.3282L58.7169 15.1179C58.9986 15.4 59.1677 15.5692 59.224 15.682C59.3367 15.7949 59.4494 15.8513 59.6185 15.9077C59.7312 15.9641 59.9002 15.9641 60.0129 15.9077C60.1819 15.8513 60.2946 15.7949 60.4073 15.7385C60.52 15.6256 60.6327 15.5128 60.6327 15.3436C60.6891 15.1744 60.6327 15.0051 60.5764 14.8359C60.6891 14.8923 60.8581 14.8923 60.9708 14.8923C61.0835 14.8923 61.2526 14.8359 61.3653 14.7231C61.478 14.6103 61.5343 14.5538 61.5907 14.441C61.647 14.3282 61.647 14.2154 61.647 14.1026C61.647 13.9897 61.5907 13.8769 61.5343 13.7641C61.478 13.6513 61.3653 13.5385 61.1962 13.3128L60.351 12.3538ZM60.351 13.1436L60.5764 13.4256C60.7454 13.6513 60.8581 13.7641 60.9145 13.8205C60.9708 13.9333 60.9708 13.9897 60.9708 14.0462C60.9708 14.1026 60.9145 14.2154 60.8581 14.2718C60.8018 14.3282 60.6891 14.3846 60.6327 14.3846C60.52 14.3846 60.4637 14.3282 60.4073 14.2718C60.351 14.2154 60.2383 14.1026 60.1256 13.9333L59.8438 13.6513L60.351 13.1436ZM59.4494 13.9333L59.7875 14.3282C59.9565 14.5538 60.0692 14.6667 60.1256 14.7795C60.1819 14.8359 60.1819 14.9487 60.1256 15.0051C60.1256 15.0615 60.0692 15.1744 60.0129 15.2308C59.9565 15.2872 59.8438 15.3436 59.7875 15.3436C59.6748 15.3436 59.6184 15.2872 59.5621 15.2308C59.5057 15.1744 59.3931 15.1179 59.2804 14.9487L58.8859 14.4974L59.4494 13.9333ZM64.0137 17.1487L65.1407 19.1231L64.6899 19.4051L63.8446 17.9949L63.2248 18.3333L63.6192 19.0667C63.7319 19.2359 63.7883 19.4615 63.8446 19.5744C63.8446 19.7436 63.8446 19.9128 63.7883 20.082C63.7319 20.2513 63.5629 20.3641 63.3938 20.4769C63.2248 20.5897 63.0558 20.6462 62.8304 20.5897C62.6613 20.5897 62.4923 20.5333 62.3796 20.4205C62.2669 20.3077 62.1542 20.1949 62.0415 19.9692L61.4216 18.6154L64.0137 17.1487ZM62.1542 18.8974L62.4359 19.4051C62.5486 19.5744 62.605 19.6872 62.6613 19.7436C62.7177 19.8 62.774 19.8564 62.8867 19.8564C62.9994 19.8564 63.0558 19.8564 63.1685 19.8C63.2812 19.7436 63.3375 19.6308 63.3375 19.5179C63.3375 19.4051 63.2812 19.2359 63.1685 19.0103L62.8304 18.4462L62.1542 18.8974ZM63.9573 23.5795L63.6756 22.959L64.1827 22.4513L63.6756 21.3231L62.9431 21.3795L62.6613 20.8154L65.9296 20.5897L66.2113 21.1538L63.9573 23.5795ZM64.5772 22.0564L65.4224 21.2103L64.2391 21.3231L64.5772 22.0564ZM64.1264 23.8615L64.3518 24.4256L65.5915 23.9744L65.9859 25.1026L64.7462 25.5538L64.9716 26.1179L67.8454 25.1026L67.62 24.5385L66.493 24.9333L66.0986 23.8051L67.2256 23.4103L67.0002 22.8462L64.1264 23.8615ZM65.1407 26.7949L68.1272 26.1179L68.2399 26.7385L67.0565 27.0205L67.3383 28.2051L68.5216 27.9231L68.6343 28.5436L65.6478 29.2205L65.5351 28.6L66.8311 28.3179L66.5494 27.1333L65.2534 27.4154L65.1407 26.7949ZM67.3383 29.4462C67.62 29.3897 67.9018 29.3897 68.1272 29.5026C68.2962 29.559 68.4653 29.6154 68.578 29.7282C68.6907 29.841 68.8034 29.9538 68.9161 30.0667C69.0288 30.2359 69.0851 30.4615 69.1415 30.6872C69.1978 31.1385 69.1415 31.5333 68.8597 31.8154C68.6343 32.0974 68.2399 32.3231 67.7891 32.3795C67.2819 32.4359 66.8875 32.3795 66.6058 32.1538C66.2677 31.9282 66.0986 31.5897 66.0423 31.1385C65.9859 30.6872 66.0423 30.2923 66.324 30.0103C66.493 29.7282 66.8311 29.559 67.3383 29.4462ZM67.451 30.0667C67.1129 30.1231 66.8875 30.2359 66.7184 30.4051C66.5494 30.5744 66.4931 30.8 66.5494 31.0256C66.6058 31.2513 66.7184 31.4769 66.8875 31.5897C67.0565 31.7026 67.3383 31.759 67.6764 31.7026C68.0145 31.6462 68.2399 31.5333 68.4089 31.3641C68.578 31.1949 68.6343 30.9692 68.578 30.7436C68.5216 30.5179 68.4089 30.2923 68.2399 30.1795C68.0708 30.0667 67.7891 30.0667 67.451 30.0667ZM69.3105 32.8308L69.4796 34.8615L68.9724 34.9179L68.8597 33.4513L66.324 33.6769L66.2677 33.0564L69.3105 32.8308ZM67.9018 35.3128C68.1835 35.3128 68.4653 35.3692 68.6907 35.4821C68.8597 35.5385 68.9724 35.6513 69.0851 35.7641C69.1978 35.8769 69.3105 36.0462 69.3669 36.159C69.4232 36.3282 69.4796 36.5538 69.4796 36.8359C69.4796 37.2872 69.3105 37.6256 69.0288 37.9077C68.747 38.1897 68.3526 38.3026 67.8454 38.3026C67.3383 38.3026 67.0002 38.1333 66.7184 37.9077C66.4367 37.6256 66.324 37.2872 66.324 36.8359C66.324 36.3846 66.493 36.0462 66.7748 35.7641C67.0565 35.4256 67.451 35.3128 67.9018 35.3128ZM67.9018 35.9333C67.5637 35.9333 67.2819 35.9897 67.1129 36.159C66.9438 36.3282 66.8311 36.4974 66.8311 36.7795C66.8311 37.0051 66.8875 37.2308 67.1129 37.4C67.2819 37.5692 67.5637 37.6256 67.9018 37.6256C68.2399 37.6256 68.5216 37.5692 68.6907 37.4C68.8597 37.2308 68.9724 37.0615 68.9724 36.7795C68.9724 36.5538 68.9161 36.3282 68.747 36.159C68.5216 36.0462 68.2962 35.9333 67.9018 35.9333ZM68.9724 41.6872L68.4653 44.0564L65.4788 43.4359L65.5915 42.8154L68.0708 43.3231L68.2962 42.1385L65.8169 41.6308L65.9296 41.0103L68.9724 41.6872ZM64.5772 46.6513L67.8454 46.2564L68.0145 45.6359L65.3661 43.7179L65.197 44.3385L65.8169 44.7333L65.4788 45.9179L64.7462 45.9744L64.5772 46.6513ZM66.0423 45.8615L66.2677 45.0718L67.2256 45.7487L66.0423 45.8615ZM64.3518 46.9333L67.1692 48.0051L66.8311 48.9077C66.7185 49.2461 66.6058 49.4718 66.5494 49.5846C66.4367 49.7538 66.324 49.8103 66.0986 49.8667C65.9296 49.9231 65.7042 49.9231 65.4788 49.8103C65.3097 49.7538 65.197 49.641 65.0843 49.5282C64.9716 49.4154 64.9153 49.3026 64.9153 49.1897C64.8589 49.0769 64.8589 48.9641 64.9153 48.8513C64.9153 48.682 65.028 48.5128 65.0843 48.2308L65.2534 47.8359L64.1827 47.441L64.3518 46.9333ZM66.493 48.4L65.7042 48.1179L65.5915 48.4564C65.4788 48.682 65.4788 48.8513 65.4788 48.9077C65.4788 49.0205 65.4788 49.0769 65.5351 49.1333C65.5915 49.1897 65.6478 49.2462 65.7042 49.3026C65.8169 49.359 65.9296 49.359 65.9859 49.3026C66.0986 49.2462 66.155 49.1897 66.2113 49.1333C66.2677 49.0769 66.324 48.9077 66.3804 48.7385L66.493 48.4ZM63.2812 49.5846L62.2105 51.6718L62.6613 51.8974L63.4502 50.3744L64.1827 50.7692L63.5065 52.1231L63.9573 52.3487L64.6335 50.9949L65.2534 51.2769L64.5208 52.7436L64.9716 52.9692L65.9859 50.9385L63.2812 49.5846ZM61.9288 52.0667L64.5208 53.7026L64.1827 54.2103L63.1685 53.5897L62.5486 54.6051L63.5629 55.2256L63.2248 55.7333L60.6327 54.0974L60.9708 53.5897L62.0978 54.2667L62.7177 53.2513L61.5907 52.5744L61.9288 52.0667ZM62.6613 56.5231L60.2946 54.6615L59.9002 55.1692L60.6891 57.3692L59.1113 56.1282L58.7732 56.5795L61.1399 58.441L61.5343 57.9333L60.6891 55.7333L62.2669 56.9744L62.6613 56.5231ZM57.0827 58.3282L57.9843 59.1744L58.097 59.0615C58.2097 58.8923 58.3224 58.7795 58.3224 58.7231C58.3224 58.6103 58.3224 58.3846 58.2097 58.0462L58.0407 57.2564L58.5478 56.6923L58.7169 57.3692C58.7732 57.6513 58.8296 57.8205 58.8296 57.9897C58.8296 58.1026 58.8296 58.2718 58.7732 58.3846C58.9986 58.2154 59.224 58.1026 59.3931 58.159C59.6185 58.159 59.7875 58.2718 59.9002 58.3846C60.0129 58.4974 60.1256 58.6667 60.1819 58.8359C60.2383 59.0051 60.1819 59.1744 60.1256 59.2872C60.0692 59.4564 59.9002 59.6256 59.7311 59.8513L58.8296 60.8103L56.6319 58.7231L57.0827 58.3282ZM58.9423 60.0205L59.2804 59.682C59.4494 59.5128 59.5621 59.4 59.6185 59.3436C59.6748 59.2872 59.6748 59.2308 59.6748 59.1179C59.6748 59.0615 59.6184 58.9487 59.5621 58.8923C59.5057 58.8359 59.3931 58.7795 59.3367 58.7795C59.2804 58.7795 59.1677 58.7795 59.1113 58.8359C59.055 58.8923 58.9423 59.0051 58.7732 59.1744L58.4915 59.5128L58.9423 60.0205Z" fill="#009EE3" stroke="#009EE3" stroke-width="0.216" stroke-miterlimit="22.9256"/>
<path fill-rule="evenodd" clip-rule="evenodd" d="M88 48V25.4811H93.9458V27.8977C94.7166 26.9091 95.4874 26.1402 96.148 25.8106C97.0289 25.3712 98.0199 25.0417 99.231 25.0417C101.433 25.0417 103.085 25.9205 104.296 27.5682C105.507 29.2159 106.058 31.303 106.058 33.7197C106.058 36.4659 105.397 38.4432 104.076 39.9811C102.755 41.4091 101.103 42.0682 99.1209 42.0682C98.13 42.0682 97.2491 41.9583 96.4783 41.6288C95.7076 41.2992 94.9368 40.8598 94.3863 40.2008V48H88ZM94.2762 33.7197C94.2762 35.0379 94.4964 35.9167 95.0469 36.5758C95.5975 37.2349 96.2581 37.5644 97.139 37.5644C97.9097 37.5644 98.4603 37.2348 99.0108 36.6856C99.4513 36.1364 99.7816 35.0379 99.7816 33.6099C99.7816 32.2917 99.5614 31.303 99.0108 30.7538C98.4603 30.0947 97.9097 29.875 97.139 29.875C96.3682 29.875 95.7076 30.2045 95.157 30.8636C94.6065 31.303 94.2762 32.2917 94.2762 33.7197ZM114.756 30.8636L108.81 30.2045C109.031 29.2159 109.361 28.3371 109.801 27.7879C110.242 27.2386 110.792 26.6894 111.673 26.25C112.224 25.9205 112.995 25.7008 114.096 25.4811C115.087 25.2614 116.188 25.2614 117.399 25.2614C119.271 25.2614 120.812 25.3712 121.913 25.5909C123.014 25.8106 124.005 26.25 124.776 26.9091C125.327 27.3485 125.767 28.0076 125.987 28.8864C126.318 29.7652 126.428 30.5341 126.428 31.303V38.553C126.428 39.322 126.428 39.8712 126.538 40.3106C126.648 40.75 126.868 41.2992 127.199 41.9583H121.363C121.143 41.5189 120.922 41.1894 120.922 40.9697C120.812 40.75 120.812 40.4205 120.702 39.9811C119.931 40.75 119.051 41.2992 118.28 41.6288C117.179 42.0682 115.857 42.2879 114.426 42.2879C112.444 42.2879 111.013 41.8485 110.022 40.9697C109.031 40.0909 108.48 38.9924 108.48 37.6742C108.48 36.4659 108.81 35.3674 109.581 34.5985C110.352 33.8295 111.673 33.1705 113.655 32.8409C115.968 32.4015 117.509 32.072 118.28 31.8523C118.94 31.6326 119.711 31.4129 120.482 31.0833C120.482 30.3144 120.372 29.7652 120.042 29.4356C119.711 29.1061 119.161 28.9962 118.39 28.9962C117.399 28.9962 116.628 29.2159 116.078 29.4356C115.307 29.6553 114.977 30.0947 114.756 30.8636ZM120.152 34.1591C119.271 34.4886 118.39 34.7083 117.509 34.928C116.188 35.2576 115.417 35.5871 115.087 35.9167C114.756 36.2462 114.536 36.6856 114.536 37.0152C114.536 37.4545 114.756 37.8939 115.087 38.2235C115.417 38.553 115.968 38.6629 116.628 38.6629C117.289 38.6629 117.949 38.4432 118.61 38.1136C119.161 37.7841 119.601 37.3447 119.931 36.9053C120.152 36.4659 120.262 35.8068 120.262 35.0379V34.1591H120.152ZM130.061 25.5909H135.897V28.2273C136.448 27.1288 136.998 26.25 137.659 25.8106C138.209 25.3712 138.98 25.1515 139.861 25.1515C140.742 25.1515 140.412 25.2614 141.513 25.8106L140.412 30.3144C139.641 29.9849 139.751 29.9848 139.31 29.9848C138.54 29.9848 137.879 30.3144 137.439 30.9735C136.778 31.9621 136.448 33.7197 136.448 36.3561V41.8485H130.171V25.5909H130.061ZM144.265 19H150.542V23.2841H144.265V19ZM144.265 26.0303H150.542V41.8485H144.265V26.0303ZM154.726 19.3295H161.002V41.8485H154.726V19.3295ZM164.966 25.3712H171.352V30.9735L175.977 25.5909H183.684L177.848 31.303L184.014 41.8485H176.968L173.664 35.2576L171.352 37.5644V41.8485H164.966V25.3712ZM191.722 30.8636L185.776 30.2045C185.996 29.2159 186.327 28.3371 186.767 27.7879C187.208 27.2386 187.758 26.6894 188.639 26.25C189.19 25.9205 189.96 25.7008 191.061 25.4811C192.052 25.2614 193.153 25.2614 194.365 25.2614C196.236 25.2614 197.778 25.3712 198.879 25.5909C199.98 25.8106 200.971 26.25 201.742 26.9091C202.292 27.3485 202.733 28.0076 202.953 28.8864C203.283 29.7652 203.394 30.5341 203.394 31.303V38.553C203.394 39.322 203.394 39.8712 203.504 40.3106C203.614 40.75 203.834 41.2992 204.164 41.9583H198.329C198.108 41.5189 197.888 41.1894 197.888 40.9697C197.778 40.75 197.778 40.4205 197.668 39.9811C196.897 40.75 196.016 41.2992 195.245 41.6288C194.144 42.0682 192.823 42.2879 191.392 42.2879C189.41 42.2879 187.978 41.8485 186.987 40.9697C185.996 40.0909 185.446 38.9924 185.446 37.6742C185.446 36.4659 185.776 35.3674 186.547 34.5985C187.318 33.8295 188.639 33.1705 190.621 32.8409C192.933 32.4015 194.475 32.072 195.245 31.8523C195.906 31.6326 196.677 31.4129 197.448 31.0833C197.448 30.3144 197.338 29.7652 197.007 29.4356C196.677 29.1061 196.126 28.9962 195.356 28.9962C194.365 28.9962 193.594 29.2159 193.043 29.4356C192.273 29.6553 191.942 30.0947 191.722 30.8636ZM197.117 34.1591C196.236 34.4886 195.356 34.7083 194.475 34.928C193.153 35.2576 192.383 35.5871 192.052 35.9167C191.722 36.2462 191.502 36.6856 191.502 37.0152C191.502 37.4545 191.722 37.8939 192.052 38.2235C192.383 38.553 192.933 38.6629 193.594 38.6629C194.255 38.6629 194.915 38.4432 195.576 38.1136C196.126 37.7841 196.567 37.3447 196.897 36.9053C197.117 36.4659 197.227 35.8068 197.227 35.0379V34.1591H197.117ZM207.027 35.5871H213.744V41.8485H207.027V35.5871ZM217.597 48V25.4811H223.433V27.8977C224.204 26.9091 224.975 26.1402 225.635 25.8106C226.516 25.3712 227.507 25.0417 228.718 25.0417C230.921 25.0417 232.572 25.9205 233.783 27.5682C234.995 29.2159 235.545 31.303 235.545 33.7197C235.545 36.4659 234.884 38.4432 233.563 39.9811C232.242 41.4091 230.59 42.0682 228.608 42.0682C227.617 42.0682 226.736 41.9583 225.966 41.6288C225.195 41.2992 224.424 40.8598 223.874 40.2008V48H217.597ZM223.874 33.7197C223.874 35.0379 224.094 35.9167 224.644 36.5758C225.195 37.2349 225.856 37.5644 226.736 37.5644C227.507 37.5644 228.058 37.2348 228.608 36.6856C229.049 36.1364 229.379 35.0379 229.379 33.6099C229.379 32.2917 229.159 31.303 228.608 30.7538C228.058 30.0947 227.507 29.875 226.736 29.875C225.966 29.875 225.305 30.2045 224.755 30.8636C224.094 31.303 223.874 32.2917 223.874 33.7197ZM238.628 25.5909H244.464V28.2273C245.014 27.1288 245.565 26.25 246.226 25.8106C246.776 25.3712 247.547 25.1515 248.428 25.1515C249.309 25.1515 250.41 25.4811 251.511 26.0303L249.529 30.5341C248.758 30.2045 248.208 30.0947 247.767 30.0947C246.996 30.0947 246.336 30.4242 245.895 31.0833C245.235 32.072 244.904 33.8295 244.904 36.4659V41.9583H238.628V25.5909ZM252.282 33.7197C252.282 31.1932 253.162 29.2159 254.814 27.5682C256.466 25.9205 258.778 25.1515 261.641 25.1515C264.944 25.1515 267.366 26.1402 269.018 28.0076C270.339 29.5455 271 31.4129 271 33.6099C271 36.1364 270.119 38.1136 268.467 39.7614C266.816 41.4091 264.504 42.178 261.531 42.178C258.888 42.178 256.796 41.5189 255.144 40.2008C253.273 38.553 252.282 36.3561 252.282 33.7197ZM258.558 33.7197C258.558 35.1477 258.888 36.2462 259.439 36.9053C259.989 37.5644 260.76 38.0038 261.641 38.0038C262.522 38.0038 263.292 37.6742 263.843 37.0152C264.393 36.3561 264.724 35.2576 264.724 33.7197C264.724 32.2917 264.393 31.303 263.843 30.5341C263.292 29.875 262.522 29.5455 261.641 29.5455C260.76 29.5455 259.989 29.875 259.329 30.6439C258.888 31.1932 258.558 32.2917 258.558 33.7197Z" fill="#E3000F" stroke="#E3000F" stroke-width="0.5669" stroke-miterlimit="22.9256"/>
</g>
<defs>
<clipPath id="clip0_306_81">
<rect width="275" height="66" fill="white"/>
</clipPath>
</defs>
</svg>
